# xmcd
# 
# Track frame offsets:
#     150
#     15994
#     26015
#     39422
#     52100
#     76556
#     106485
#     119627
#     135598
#     167826
#     187075
#     201504
#     214499
#     228153
#     240871
#     251529
#     264013
# 
# Disc length: 3705
# 
# Revision: 9
# Processed by: cddbd v1.5.2PL0 Copyright (c) Steve Scherf et al.
# Submitted via: fre:ac v1.0.17
# 
DISCID=e10e7711
DTITLE=Various Artist - House of Blues - Essential Guitar Blues [CD2)
DYEAR=1997
DGENRE=Blues
TTITLE0=Robert Cray Band - Phone Booth
TTITLE1=Earl Hooker - Blues In D Natural
TTITLE2=T-Bone Walker - T-Bone Shuffle
TTITLE3=Elmore James - The Sky Is Crying
TTITLE4=B. B. King - The Thrill Is Gone
TTITLE5=Roy Buchanan - When a Guitar Plays the Blues
TTITLE6=Lowell Fulson - Sinners Prayer
TTITLE7=Magic Sam - I Have the Same Old Blues
TTITLE8=Jimmy Dawkins - Beetin Nockin Ringin
TTITLE9=Robert Ward - Your Love Is Amazing
TTITLE10=Albert King - Blues Power
TTITLE11=Johnny Shines - Standing At the Crossroads
TTITLE12=Guitar Slim - The Things That I Used To Do
TTITLE13=Bo Diddley - Mumblin' Guitar
TTITLE14=Big Joe Williams - I Got a Bad Mind
TTITLE15=John Lee Hooker - Crawlin' King Snake
TTITLE16=Eddie "One String" Jones - Baby Please Don't Go
EXTD=LABEL =Platinum Entertainment, Inc.\nID =5141613012\nUPC =751516-1301-25\nCOPYRIGHT =1997
EXTT0=
EXTT1=
EXTT2=
EXTT3=
EXTT4=
EXTT5=
EXTT6=
EXTT7=
EXTT8=
EXTT9=
EXTT10=
EXTT11=
EXTT12=
EXTT13=
EXTT14=
EXTT15=
EXTT16=
PLAYORDER=
